<?xml version="1.0" encoding="UTF-8" standalone="no" ?>
<!DOCTYPE svg PUBLIC "-//W3C//DTD SVG 1.1//EN" "http://www.w3.org/Graphics/SVG/1.1/DTD/svg11.dtd">
<svg xmlns="http://www.w3.org/2000/svg" xmlns:xlink="http://www.w3.org/1999/xlink" version="1.1" width="349" height="91" viewBox="0 0 349 91" xml:space="preserve">
<desc>Created with Fabric.js 5.2.4</desc>
<defs>
</defs>
<rect x="0" y="0" width="100%" height="100%" fill="transparent"></rect>
<g transform="matrix(1 0 0 1 174.5 45.5)" id="0574fc34-a583-4024-8c51-8689a6339a4a"  >
<rect style="stroke: none; stroke-width: 1; stroke-dasharray: none; stroke-linecap: butt; stroke-dashoffset: 0; stroke-linejoin: miter; stroke-miterlimit: 4; fill: rgb(255,255,255); fill-rule: nonzero; opacity: 1; visibility: hidden;" vector-effect="non-scaling-stroke"  x="-174.5" y="-45.5" rx="0" ry="0" width="349" height="91" />
</g>
<g transform="matrix(Infinity NaN NaN Infinity 0 0)" id="f8f873c2-e82c-4774-b6a3-5535f8576a76"  >
</g>
<g transform="matrix(0.26 0 0 0.26 170.5 45.5)"  >
<g style="" vector-effect="non-scaling-stroke"   >
		<g transform="matrix(1 0 0 1 531.22 -41.11)"  >
<path style="stroke: none; stroke-width: 0; stroke-dasharray: none; stroke-linecap: butt; stroke-dashoffset: 0; stroke-linejoin: miter; stroke-miterlimit: 4; fill: rgb(114,191,68); fill-rule: nonzero; opacity: 1;" vector-effect="non-scaling-stroke"  transform=" translate(-1324.26, -165.86)" d="M 1343.48 184.4 C 1344.47 177.83 1345.04 171.6 1345.1200000000001 165.8 C 1334.0700000000002 156.96 1320.5000000000002 150.94 1306.5300000000002 147.32000000000002 C 1304.4 152.23000000000002 1303.0800000000002 157.87000000000003 1303.4700000000003 164.62000000000003 C 1303.4700000000003 165.95000000000005 1303.5500000000002 167.27000000000004 1303.6700000000003 168.57000000000002 C 1317.7500000000002 171.59000000000003 1331.2400000000002 176.75000000000003 1343.4700000000003 184.40000000000003 Z" stroke-linecap="round" />
</g>
		<g transform="matrix(1 0 0 1 533.43 -63.53)"  >
<path style="stroke: none; stroke-width: 0; stroke-dasharray: none; stroke-linecap: butt; stroke-dashoffset: 0; stroke-linejoin: miter; stroke-miterlimit: 4; fill: rgb(114,191,68); fill-rule: nonzero; opacity: 1;" vector-effect="non-scaling-stroke"  transform=" translate(-1326.47, -143.44)" d="M 1342.46 138.49 C 1336.04 133.17000000000002 1328.14 129.28 1319.96 127.44000000000001 C 1316.41 132.34 1311.48 137.73000000000002 1307.9 144.59 C 1321.0700000000002 147.33 1333.71 152.11 1345.0400000000002 159.44 C 1344.7700000000002 151.66 1343.8200000000002 144.68 1342.4500000000003 138.5 Z" stroke-linecap="round" />
</g>
		<g transform="matrix(1 0 0 1 530.33 -18.4)"  >
<path style="stroke: none; stroke-width: 0; stroke-dasharray: none; stroke-linecap: butt; stroke-dashoffset: 0; stroke-linejoin: miter; stroke-miterlimit: 4; fill: rgb(114,191,68); fill-rule: nonzero; opacity: 1;" vector-effect="non-scaling-stroke"  transform=" translate(-1323.37, -188.56)" d="M 1338.81 205.35 C 1340.33 200.09 1341.6399999999999 194.95999999999998 1342.58 190.07999999999998 C 1331.24 181.7 1317.9399999999998 175.66 1304.1599999999999 171.77999999999997 C 1307.2399999999998 188.96999999999997 1321.1599999999999 202.46999999999997 1338.81 205.34999999999997 Z" stroke-linecap="round" />
</g>
		<g transform="matrix(1 0 0 1 538.09 -88.37)"  >
<path style="stroke: none; stroke-width: 0; stroke-dasharray: none; stroke-linecap: butt; stroke-dashoffset: 0; stroke-linejoin: miter; stroke-miterlimit: 4; fill: rgb(114,191,68); fill-rule: nonzero; opacity: 1;" vector-effect="non-scaling-stroke"  transform=" translate(-1331.13, -118.59)" d="M 1328.93 106.12 C 1327.99 110.44 1325.8600000000001 117.93 1321.73 124.69 C 1328.35 125.73 1334.69 127.87 1340.54 131.07 C 1336.67 118.05999999999999 1331.3899999999999 109.60999999999999 1328.93 106.11999999999999 Z" stroke-linecap="round" />
</g>
		<g transform="matrix(1 0 0 1 517.65 3.83)"  >
<path style="stroke: none; stroke-width: 0; stroke-dasharray: none; stroke-linecap: butt; stroke-dashoffset: 0; stroke-linejoin: miter; stroke-miterlimit: 4; fill: rgb(114,191,68); fill-rule: nonzero; opacity: 1;" vector-effect="non-scaling-stroke"  transform=" translate(-1310.7, -210.79)" d="M 1318.78 226.13 C 1319.52 214.07999999999998 1314.03 202.34 1303.78 195.45999999999998 C 1302.41 204.37999999999997 1302.1399999999999 213.49999999999997 1303.17 222.32999999999998 C 1308.8700000000001 222.73 1313.8300000000002 223.96999999999997 1318.77 226.13 Z" stroke-linecap="round" />
</g>
		<g transform="matrix(1 0 0 1 461.28 -8.42)"  >
<path style="stroke: none; stroke-width: 0; stroke-dasharray: none; stroke-linecap: butt; stroke-dashoffset: 0; stroke-linejoin: miter; stroke-miterlimit: 4; fill: rgb(114,191,68); fill-rule: nonzero; opacity: 1;" vector-effect="non-scaling-stroke"  transform=" translate(-1254.32, -198.55)" d="M 1261.08 191.92 C 1255.74 192.01 1250.76 191.1 1247.56 190.30999999999997 C 1249.6 194.59999999999997 1253.31 200.89 1259.6 206.78999999999996 C 1259.4499999999998 201.73999999999995 1260.04 196.77999999999997 1261.08 191.91999999999996 Z" stroke-linecap="round" />
</g>
		<g transform="matrix(1 0 0 1 498.94 -1.48)"  >
<path style="stroke: none; stroke-width: 0; stroke-dasharray: none; stroke-linecap: butt; stroke-dashoffset: 0; stroke-linejoin: miter; stroke-miterlimit: 4; fill: rgb(114,191,68); fill-rule: nonzero; opacity: 1;" vector-effect="non-scaling-stroke"  transform=" translate(-1291.99, -205.49)" d="M 1297.89 221.99 C 1297.5500000000002 212.37 1298.63 202.9 1300.8600000000001 193.66000000000003 C 1300.6100000000001 193.53000000000003 1300.4 193.35000000000002 1300.15 193.22000000000003 C 1294.69 190.07000000000002 1289.47 189.06000000000003 1284.5600000000002 188.98000000000002 C 1282.7600000000002 199.33 1282.5100000000002 210.04000000000002 1284.5900000000001 220.10000000000002 C 1288.6100000000001 221.10000000000002 1293.0600000000002 221.73000000000002 1297.89 221.99 Z" stroke-linecap="round" />
</g>
		<g transform="matrix(1 0 0 1 479.59 -3.2)"  >
<path style="stroke: none; stroke-width: 0; stroke-dasharray: none; stroke-linecap: butt; stroke-dashoffset: 0; stroke-linejoin: miter; stroke-miterlimit: 4; fill: rgb(114,191,68); fill-rule: nonzero; opacity: 1;" vector-effect="non-scaling-stroke"  transform=" translate(-1272.63, -203.77)" d="M 1279.12 218.51 C 1278.09 208.59 1278.9699999999998 198.68 1281.2299999999998 189.03 C 1275.5199999999998 189.42 1270.3199999999997 190.89000000000001 1265.8399999999997 191.56 C 1265.4199999999996 191.62 1264.9899999999998 191.63 1264.5699999999997 191.68 C 1263.7299999999998 198.34 1263.8199999999997 205.15 1265.3299999999997 211.4 C 1269.2099999999998 214.14000000000001 1273.7299999999998 216.63 1279.1199999999997 218.51000000000002 Z" stroke-linecap="round" />
</g>
		<g transform="matrix(1 0 0 1 585.56 4.81)"  >
<path style="stroke: none; stroke-width: 0; stroke-dasharray: none; stroke-linecap: butt; stroke-dashoffset: 0; stroke-linejoin: miter; stroke-miterlimit: 4; fill: rgb(114,191,68); fill-rule: nonzero; opacity: 1;" vector-effect="non-scaling-stroke"  transform=" translate(-1378.6, -211.77)" d="M 1370.5 226.57 C 1375.89 225.22 1381.13 224.29 1386.09 223.95999999999998 C 1387.1299999999999 215.08999999999997 1386.86 205.92999999999998 1385.49 196.98 C 1375.56 203.64999999999998 1370.14 214.89999999999998 1370.5 226.57 Z" stroke-linecap="round" />
</g>
		<g transform="matrix(1 0 0 1 604.25 0.04)"  >
<path style="stroke: none; stroke-width: 0; stroke-dasharray: none; stroke-linecap: butt; stroke-dashoffset: 0; stroke-linejoin: miter; stroke-miterlimit: 4; fill: rgb(114,191,68); fill-rule: nonzero; opacity: 1;" vector-effect="non-scaling-stroke"  transform=" translate(-1397.29, -207.01)" d="M 1404.69 221.63 C 1406.76 211.56 1406.53 200.85999999999999 1404.72 190.51 C 1399.81 190.57999999999998 1394.59 191.6 1389.13 194.75 C 1388.88 194.88 1388.67 195.05 1388.42 195.18 C 1390.65 204.42000000000002 1391.73 213.89000000000001 1391.4 223.51 C 1396.22 223.25 1400.67 222.62 1404.68 221.62 Z" stroke-linecap="round" />
</g>
		<g transform="matrix(1 0 0 1 551.59 0)"  >
<path style="stroke: none; stroke-width: 0; stroke-dasharray: none; stroke-linecap: butt; stroke-dashoffset: 0; stroke-linejoin: miter; stroke-miterlimit: 4; fill: rgb(114,191,68); fill-rule: nonzero; opacity: 1;" vector-effect="non-scaling-stroke"  transform=" translate(-1344.63, -206.97)" d="M 1447.81 219.1 C 1448.76 208.97 1447.32 199.76999999999998 1446.24 194.78 C 1440.51 206.14 1424.82 228.21 1389.19 229.09 C 1381.2 229.29 1372.3 231.14000000000001 1363.03 234.39000000000001 C 1361.72 234.85000000000002 1347.6299999999999 240.84 1344.51 242.95000000000002 C 1345.29 241.50000000000003 1351.61 228.76000000000002 1356.1 204.65000000000003 C 1371.24 200.83000000000004 1382.4699999999998 188.69000000000003 1386.58 173.46000000000004 C 1378.76 177.43000000000004 1371.27 181.98000000000005 1364.46 187.30000000000004 C 1363.28 188.23000000000005 1361.57 188.03000000000003 1360.64 186.86000000000004 C 1359.71 185.69000000000005 1359.91 183.99000000000004 1361.0800000000002 183.06000000000003 C 1369.39 177.44000000000003 1378.3100000000002 173.00000000000003 1387.4800000000002 169.32000000000002 C 1387.7500000000002 167.77 1388.0700000000002 166.22000000000003 1388.1900000000003 164.62000000000003 C 1388.8500000000004 156.22000000000003 1387.6700000000003 148.93000000000004 1385.3000000000002 142.57000000000002 C 1377.0100000000002 147.22000000000003 1369.1900000000003 152.88000000000002 1362.4300000000003 159.38000000000002 C 1361.3600000000004 160.43000000000004 1359.6400000000003 160.42000000000002 1358.5900000000004 159.36 C 1357.4700000000005 158.24 1357.5700000000004 156.36 1358.8000000000004 155.37 C 1366.5700000000004 149.02 1375.0500000000004 143.86 1384.0600000000004 139.72 C 1380.3800000000003 131.56 1374.7200000000005 125.07 1368.3300000000004 119.98 C 1368.2700000000004 120.05 1368.2800000000004 120.14 1368.1900000000003 120.2 C 1363.4200000000003 123.82000000000001 1359.3600000000004 128.39000000000001 1356.3500000000004 133.38 C 1355.5800000000004 134.66 1353.9000000000003 135.07999999999998 1352.6200000000003 134.31 C 1351.3300000000004 133.54 1350.9100000000003 131.87 1351.6900000000003 130.59 C 1355.6700000000003 125.53 1360.6200000000003 121.42 1366.0700000000004 118.25 C 1354.0400000000004 109.45 1340.3500000000004 105.16 1333.7200000000005 103.49 C 1370.6800000000005 155.45 1336.2300000000005 234.07999999999998 1330.5600000000004 240.96999999999997 C 1327.6000000000004 237.83999999999997 1323.5000000000005 234.74999999999997 1318.8200000000004 232.08999999999997 C 1312.9000000000003 229.09999999999997 1307.1600000000003 227.75999999999996 1300.0700000000004 227.57999999999998 C 1264.4400000000003 226.69 1248.7500000000005 204.60999999999999 1243.0300000000004 193.26 C 1241.9500000000005 198.26 1240.5000000000005 207.57999999999998 1241.4600000000005 217.70999999999998 C 1244.7500000000005 215.98 1248.1800000000005 214.51999999999998 1251.9000000000005 213.65999999999997 C 1253.3600000000006 213.30999999999997 1254.8300000000006 214.21999999999997 1255.1800000000005 215.67999999999998 C 1255.5300000000004 217.14 1254.6200000000006 218.59999999999997 1253.1600000000005 218.95 C 1249.3900000000006 219.22 1245.5600000000006 219.91 1241.9000000000005 221.2 C 1242.8600000000006 227.51 1244.9000000000005 233.95999999999998 1248.6200000000006 239.81 C 1254.5800000000006 235.24 1261.0000000000007 231.33 1267.9600000000005 228.2 C 1269.3300000000004 227.57999999999998 1270.9400000000005 228.19 1271.5600000000004 229.54999999999998 C 1272.1800000000003 230.91 1271.5600000000004 232.51999999999998 1270.2000000000005 233.13 C 1263.3700000000006 235.45 1256.6900000000005 238.67 1250.4800000000005 242.56 C 1254.5700000000004 247.93 1260.2900000000004 252.61 1268.2800000000004 255.89000000000001 C 1275.1200000000003 249.55 1282.5400000000004 243.74 1290.8300000000004 239.03000000000003 C 1292.1300000000003 238.29000000000002 1293.7900000000004 238.74000000000004 1294.5400000000004 240.04000000000002 C 1295.3300000000004 241.41000000000003 1294.7500000000005 243.19000000000003 1293.3100000000004 243.84000000000003 C 1285.7300000000005 247.31000000000003 1278.5700000000004 251.88000000000002 1271.8100000000004 257.01000000000005 C 1288.0400000000004 262.04 1305.6200000000003 256.56000000000006 1314.1900000000005 241.58000000000004 C 1319.5000000000005 245.40000000000003 1323.2900000000004 250.97000000000003 1320.4400000000005 258.87000000000006 C 1318.7900000000004 263.45000000000005 1314.5000000000005 268.24000000000007 1304.0400000000004 268.24000000000007 C 1297.9400000000005 268.24000000000007 1285.0200000000004 264.4800000000001 1272.8200000000004 271.93000000000006 C 1264.7300000000005 276.87000000000006 1264.8000000000004 280.2800000000001 1264.8000000000004 280.2800000000001 C 1264.8000000000004 280.2800000000001 1277.5900000000004 274.5100000000001 1287.6400000000003 276.06000000000006 C 1297.7700000000004 277.61000000000007 1302.8800000000003 280.8500000000001 1314.3300000000004 277.0300000000001 C 1308.1100000000004 284.18000000000006 1304.9100000000003 304.37000000000006 1321.6200000000003 310.44000000000005 C 1313.0200000000004 300.57000000000005 1321.2300000000002 284.0400000000001 1326.6300000000003 282.49000000000007 C 1332.3900000000003 296.9000000000001 1357.3200000000004 298.0400000000001 1370.9500000000003 292.20000000000005 C 1388.7300000000002 284.59000000000003 1406.0100000000002 287.21000000000004 1414.5400000000002 290.98 C 1404.7700000000002 276.24 1382.0000000000002 279.24 1373.4800000000002 281.61 C 1364.9500000000003 283.97 1343.2600000000002 288.37 1339.6700000000003 277.28000000000003 C 1334.4800000000002 261.24 1356.1600000000003 248.47000000000003 1374.9700000000003 242.87000000000003 C 1383.4900000000002 258.04 1401.1800000000003 263.6 1417.5000000000002 258.54 C 1410.7400000000002 253.41000000000003 1403.5800000000002 248.84000000000003 1396.0000000000002 245.37000000000003 C 1394.6300000000003 244.75000000000003 1394.0300000000002 243.14000000000004 1394.6500000000003 241.78000000000003 C 1395.2700000000002 240.42000000000002 1396.8800000000003 239.82000000000002 1398.2500000000002 240.44000000000003 C 1406.6300000000003 245.13000000000002 1414.1200000000001 251.02000000000004 1421.0100000000002 257.41 C 1428.9900000000002 254.13000000000002 1434.6600000000003 249.42000000000002 1438.7500000000002 244.04000000000002 C 1432.6400000000003 240.22000000000003 1426.0800000000002 237.03000000000003 1419.3600000000001 234.75000000000003 C 1417.93 234.28000000000003 1417.16 232.75000000000003 1417.6200000000001 231.33000000000004 C 1418.1100000000001 229.81000000000003 1419.8700000000001 229.04000000000005 1421.3200000000002 229.71000000000004 C 1422.88 229.98000000000005 1434.14 236.31000000000003 1440.7100000000003 241.23000000000005 C 1444.3500000000004 235.46000000000004 1446.3800000000003 229.12000000000006 1447.3500000000004 222.89000000000004 C 1443.8400000000004 221.65000000000003 1440.2100000000003 220.74000000000004 1436.5900000000004 220.53000000000003 C 1435.0900000000004 220.44000000000003 1433.9400000000003 219.16000000000003 1434.0300000000004 217.66000000000003 C 1434.8000000000004 212.86 1442.5000000000005 216.19000000000003 1447.8200000000004 219.09000000000003 Z" stroke-linecap="round" />
</g>
		<g transform="matrix(1 0 0 1 623.59 -1.67)"  >
<path style="stroke: none; stroke-width: 0; stroke-dasharray: none; stroke-linecap: butt; stroke-dashoffset: 0; stroke-linejoin: miter; stroke-miterlimit: 4; fill: rgb(114,191,68); fill-rule: nonzero; opacity: 1;" vector-effect="non-scaling-stroke"  transform=" translate(-1416.63, -205.3)" d="M 1410.17 220.04 C 1415.5800000000002 218.15 1420.1200000000001 215.65 1424.02 212.89 C 1425.44 206.60999999999999 1425.52 199.83999999999997 1424.66 193.2 C 1424.25 193.14999999999998 1423.8500000000001 193.14999999999998 1423.44 193.08999999999997 C 1418.97 192.42 1413.77 190.95 1408.05 190.55999999999997 C 1410.32 200.21999999999997 1411.19 210.11999999999998 1410.1699999999998 220.03999999999996 Z" stroke-linecap="round" />
</g>
		<g transform="matrix(1 0 0 1 641.88 -6.9)"  >
<path style="stroke: none; stroke-width: 0; stroke-dasharray: none; stroke-linecap: butt; stroke-dashoffset: 0; stroke-linejoin: miter; stroke-miterlimit: 4; fill: rgb(114,191,68); fill-rule: nonzero; opacity: 1;" vector-effect="non-scaling-stroke"  transform=" translate(-1434.93, -200.07)" d="M 1441.72 191.84 C 1438.51 192.63 1433.5 193.55 1428.13 193.45000000000002 C 1429.2 198.3 1429.8000000000002 203.25000000000003 1429.69 208.3 C 1435.98 202.41000000000003 1439.68 196.13000000000002 1441.72 191.84 Z" stroke-linecap="round" />
</g>
		<g transform="matrix(1 0 0 1 -627.37 -26.19)"  >
<path style="stroke: none; stroke-width: 0; stroke-dasharray: none; stroke-linecap: butt; stroke-dashoffset: 0; stroke-linejoin: miter; stroke-miterlimit: 4; fill: rgb(0,0,0); fill-rule: nonzero; opacity: 1;" vector-effect="non-scaling-stroke"  transform=" translate(-165.67, -180.78)" d="M 137.97 211.39 L 137.97 150.17 L 151.43 150.17 L 151.43 174.73999999999998 L 179.92000000000002 174.73999999999998 L 179.92000000000002 150.17 L 193.37 150.17 L 193.37 211.39 L 179.92000000000002 211.39 L 179.92000000000002 185.95 L 151.43 185.95 L 151.43 211.39 L 137.97 211.39 Z" stroke-linecap="round" />
</g>
		<g transform="matrix(1 0 0 1 -550.22 -26.18)"  >
<path style="stroke: none; stroke-width: 0; stroke-dasharray: none; stroke-linecap: butt; stroke-dashoffset: 0; stroke-linejoin: miter; stroke-miterlimit: 4; fill: rgb(0,0,0); fill-rule: nonzero; opacity: 1;" vector-effect="non-scaling-stroke"  transform=" translate(-242.82, -180.79)" d="M 242.78 212.35 C 236.76 212.35 231.47 211.04 226.93 208.4 C 222.39000000000001 205.76000000000002 218.85 202.09 216.34 197.37 C 213.82 192.66 212.56 187.12 212.56 180.74 C 212.56 174.36 213.82 168.83 216.34 164.11 C 218.86 159.4 222.37 155.73000000000002 226.89000000000001 153.13000000000002 C 231.41000000000003 150.52 236.70000000000002 149.22000000000003 242.78000000000003 149.22000000000003 C 248.86000000000004 149.22000000000003 254.16000000000003 150.52000000000004 258.71000000000004 153.13000000000002 C 263.25000000000006 155.73000000000002 266.79 159.40000000000003 269.31000000000006 164.11 C 271.83000000000004 168.83 273.08000000000004 174.34 273.08000000000004 180.65 C 273.08000000000004 186.96 271.82000000000005 192.58 269.31000000000006 197.32 C 266.7900000000001 202.07 263.25000000000006 205.76 258.71000000000004 208.39 C 254.17000000000002 211.01999999999998 248.86000000000004 212.33999999999997 242.78000000000003 212.33999999999997 Z M 242.78 200.89 C 247.87 200.89 251.85 199.10999999999999 254.72 195.54999999999998 C 257.59 191.99999999999997 259.02 187.05999999999997 259.02 180.74999999999997 C 259.02 174.43999999999997 257.60999999999996 169.44999999999996 254.76999999999998 165.94999999999996 C 251.93999999999997 162.44999999999996 247.93999999999997 160.69999999999996 242.79 160.69999999999996 C 237.64000000000001 160.69999999999996 233.79999999999998 162.44999999999996 230.93 165.94999999999996 C 228.07 169.45999999999995 226.63 174.38999999999996 226.63 180.74999999999997 C 226.63 187.10999999999999 228.06 191.99999999999997 230.93 195.54999999999998 C 233.8 199.10999999999999 237.75 200.89 242.79000000000002 200.89 Z" stroke-linecap="round" />
</g>
		<g transform="matrix(1 0 0 1 -476.53 -26.18)"  >
<path style="stroke: none; stroke-width: 0; stroke-dasharray: none; stroke-linecap: butt; stroke-dashoffset: 0; stroke-linejoin: miter; stroke-miterlimit: 4; fill: rgb(0,0,0); fill-rule: nonzero; opacity: 1;" vector-effect="non-scaling-stroke"  transform=" translate(-316.51, -180.79)" d="M 321.89 212.35 C 315.28999999999996 212.35 309.64 211.04999999999998 304.96 208.44 C 300.27 205.84 296.65999999999997 202.18 294.15 197.46 C 291.64 192.74 290.37 187.17000000000002 290.37 180.74 C 290.37 174.31 291.63 168.83 294.15 164.11 C 296.66999999999996 159.4 300.27 155.73000000000002 304.96 153.13000000000002 C 309.65 150.52 315.28999999999996 149.22000000000003 321.89 149.22000000000003 C 325.94 149.22000000000003 329.82 149.86 333.53 151.13000000000002 C 337.22999999999996 152.40000000000003 340.27 154.14000000000001 342.65 156.34000000000003 L 338.47999999999996 167.02000000000004 C 335.86999999999995 164.99000000000004 333.25999999999993 163.50000000000003 330.61999999999995 162.55000000000004 C 327.97999999999996 161.60000000000005 325.21999999999997 161.12000000000003 322.31999999999994 161.12000000000003 C 316.47999999999996 161.12000000000003 312.05999999999995 162.82000000000002 309.0799999999999 166.20000000000005 C 306.0999999999999 169.58000000000007 304.6099999999999 174.44000000000005 304.6099999999999 180.74000000000004 C 304.6099999999999 187.04000000000002 306.0899999999999 191.91000000000003 309.0799999999999 195.33000000000004 C 312.05999999999995 198.74000000000004 316.4799999999999 200.45000000000005 322.31999999999994 200.45000000000005 C 325.2199999999999 200.45000000000005 327.97999999999996 199.97000000000006 330.61999999999995 199.02000000000004 C 333.25999999999993 198.07000000000002 335.86999999999995 196.57000000000005 338.47999999999996 194.55000000000004 L 342.65 205.23000000000005 C 340.28 207.37000000000003 337.23999999999995 209.09000000000006 333.53 210.40000000000003 C 329.82 211.70000000000005 325.94 212.35000000000002 321.89 212.35000000000002 Z" stroke-linecap="round" />
</g>
		<g transform="matrix(1 0 0 1 -405.16 -26.19)"  >
<path style="stroke: none; stroke-width: 0; stroke-dasharray: none; stroke-linecap: butt; stroke-dashoffset: 0; stroke-linejoin: miter; stroke-miterlimit: 4; fill: rgb(0,0,0); fill-rule: nonzero; opacity: 1;" vector-effect="non-scaling-stroke"  transform=" translate(-387.88, -180.78)" d="M 360.18 211.39 L 360.18 150.17 L 373.64 150.17 L 373.64 174.73999999999998 L 402.13 174.73999999999998 L 402.13 150.17 L 415.58 150.17 L 415.58 211.39 L 402.13 211.39 L 402.13 185.95 L 373.64 185.95 L 373.64 211.39 L 360.18 211.39 Z" stroke-linecap="round" />
</g>
		<g transform="matrix(1 0 0 1 -334.18 -26.16)"  >
<path style="stroke: none; stroke-width: 0; stroke-dasharray: none; stroke-linecap: butt; stroke-dashoffset: 0; stroke-linejoin: miter; stroke-miterlimit: 4; fill: rgb(0,0,0); fill-rule: nonzero; opacity: 1;" vector-effect="non-scaling-stroke"  transform=" translate(-458.86, -180.81)" d="M 458.48 212.35 C 453.67 212.35 449.14000000000004 211.73999999999998 444.89000000000004 210.53 C 440.64000000000004 209.31 437.09000000000003 207.67 434.25000000000006 205.58 L 438.1600000000001 194.99 C 440.8800000000001 196.9 443.99000000000007 198.4 447.50000000000006 199.51000000000002 C 451.00000000000006 200.61 454.6600000000001 201.16000000000003 458.4800000000001 201.16000000000003 C 462.6500000000001 201.16000000000003 465.6500000000001 200.51000000000002 467.4700000000001 199.21000000000004 C 469.2900000000001 197.90000000000003 470.2000000000001 196.27000000000004 470.2000000000001 194.30000000000004 C 470.2000000000001 192.63000000000005 469.5600000000001 191.29000000000005 468.2900000000001 190.31000000000003 C 467.0100000000001 189.33000000000004 464.7800000000001 188.49000000000004 461.6000000000001 187.79000000000002 L 451.7900000000001 185.71 C 440.8500000000001 183.39000000000001 435.37000000000006 177.72 435.37000000000006 168.69 C 435.37000000000006 164.82 436.4200000000001 161.41 438.50000000000006 158.49 C 440.58000000000004 155.57000000000002 443.49000000000007 153.3 447.2300000000001 151.68 C 450.9600000000001 150.06 455.2900000000001 149.25 460.2100000000001 149.25 C 464.4400000000001 149.25 468.4000000000001 149.86 472.1000000000001 151.07 C 475.80000000000007 152.29 478.88000000000005 154 481.31000000000006 156.19 L 477.40000000000003 166.09 C 472.65000000000003 162.32 466.89000000000004 160.44 460.11 160.44 C 456.46000000000004 160.44 453.64 161.15 451.64 162.57 C 449.65 163.98999999999998 448.64 165.82999999999998 448.64 168.07999999999998 C 448.64 169.76 449.25 171.11999999999998 450.46999999999997 172.16 C 451.69 173.2 453.79999999999995 174.04 456.80999999999995 174.68 L 466.61999999999995 176.76000000000002 C 477.84999999999997 179.19000000000003 483.46999999999997 184.70000000000002 483.46999999999997 193.26000000000002 C 483.46999999999997 197.08 482.44 200.43 480.39 203.29000000000002 C 478.33 206.16000000000003 475.44 208.39000000000001 471.71 209.98000000000002 C 467.97999999999996 211.57000000000002 463.56 212.37 458.46999999999997 212.37 Z" stroke-linecap="round" />
</g>
		<g transform="matrix(1 0 0 1 -267.78 -26.18)"  >
<path style="stroke: none; stroke-width: 0; stroke-dasharray: none; stroke-linecap: butt; stroke-dashoffset: 0; stroke-linejoin: miter; stroke-miterlimit: 4; fill: rgb(0,0,0); fill-rule: nonzero; opacity: 1;" vector-effect="non-scaling-stroke"  transform=" translate(-525.26, -180.79)" d="M 530.64 212.35 C 524.04 212.35 518.39 211.04999999999998 513.71 208.44 C 509.02000000000004 205.84 505.41 202.18 502.90000000000003 197.46 C 500.39000000000004 192.74 499.12000000000006 187.17000000000002 499.12000000000006 180.74 C 499.12000000000006 174.31 500.38000000000005 168.83 502.90000000000003 164.11 C 505.42 159.4 509.02000000000004 155.73000000000002 513.71 153.13000000000002 C 518.4000000000001 150.52 524.0400000000001 149.22000000000003 530.64 149.22000000000003 C 534.6899999999999 149.22000000000003 538.5699999999999 149.86 542.28 151.13000000000002 C 545.98 152.40000000000003 549.02 154.14000000000001 551.4 156.34000000000003 L 547.23 167.02000000000004 C 544.62 164.99000000000004 542.01 163.50000000000003 539.37 162.55000000000004 C 536.73 161.60000000000005 533.97 161.12000000000003 531.07 161.12000000000003 C 525.23 161.12000000000003 520.8100000000001 162.82000000000002 517.83 166.20000000000005 C 514.85 169.58000000000004 513.36 174.44000000000005 513.36 180.74000000000004 C 513.36 187.04000000000002 514.84 191.91000000000003 517.83 195.33000000000004 C 520.8100000000001 198.74000000000004 525.23 200.45000000000005 531.07 200.45000000000005 C 533.97 200.45000000000005 536.73 199.97000000000006 539.37 199.02000000000004 C 542.01 198.07000000000002 544.62 196.57000000000005 547.23 194.55000000000004 L 551.4 205.23000000000005 C 549.03 207.37000000000003 545.99 209.09000000000006 542.28 210.40000000000003 C 538.5699999999999 211.70000000000005 534.6899999999999 212.35000000000002 530.64 212.35000000000002 Z" stroke-linecap="round" />
</g>
		<g transform="matrix(1 0 0 1 -196.41 -26.19)"  >
<path style="stroke: none; stroke-width: 0; stroke-dasharray: none; stroke-linecap: butt; stroke-dashoffset: 0; stroke-linejoin: miter; stroke-miterlimit: 4; fill: rgb(0,0,0); fill-rule: nonzero; opacity: 1;" vector-effect="non-scaling-stroke"  transform=" translate(-596.63, -180.78)" d="M 568.93 211.39 L 568.93 150.17 L 582.39 150.17 L 582.39 174.73999999999998 L 610.88 174.73999999999998 L 610.88 150.17 L 624.33 150.17 L 624.33 211.39 L 610.88 211.39 L 610.88 185.95 L 582.39 185.95 L 582.39 211.39 L 568.93 211.39 Z" stroke-linecap="round" />
</g>
		<g transform="matrix(1 0 0 1 -121.6 -25.71)"  >
<path style="stroke: none; stroke-width: 0; stroke-dasharray: none; stroke-linecap: butt; stroke-dashoffset: 0; stroke-linejoin: miter; stroke-miterlimit: 4; fill: rgb(0,0,0); fill-rule: nonzero; opacity: 1;" vector-effect="non-scaling-stroke"  transform=" translate(-671.44, -181.26)" d="M 671.57 212.35 C 662.8900000000001 212.35 656.2800000000001 210.12 651.73 205.66 C 647.1800000000001 201.2 644.91 194.57 644.91 185.76999999999998 L 644.91 150.17 L 658.37 150.17 L 658.37 185.85999999999999 C 658.37 190.83999999999997 659.49 194.58999999999997 661.75 197.10999999999999 C 664 199.63 667.28 200.88 671.56 200.88 C 680.3 200.88 684.68 195.88 684.68 185.85999999999999 L 684.68 150.17 L 697.9699999999999 150.17 L 697.9699999999999 185.76999999999998 C 697.9699999999999 194.57 695.7399999999999 201.2 691.2799999999999 205.65999999999997 C 686.8199999999998 210.11999999999998 680.2499999999999 212.34999999999997 671.5599999999998 212.34999999999997 Z" stroke-linecap="round" />
</g>
		<g transform="matrix(1 0 0 1 -53.61 -26.19)"  >
<path style="stroke: none; stroke-width: 0; stroke-dasharray: none; stroke-linecap: butt; stroke-dashoffset: 0; stroke-linejoin: miter; stroke-miterlimit: 4; fill: rgb(0,0,0); fill-rule: nonzero; opacity: 1;" vector-effect="non-scaling-stroke"  transform=" translate(-739.43, -180.78)" d="M 718.55 211.39 L 718.55 150.17 L 732.01 150.17 L 732.01 200.01 L 760.3199999999999 200.01 L 760.3199999999999 211.39 L 718.55 211.39 Z" stroke-linecap="round" />
</g>
		<g transform="matrix(1 0 0 1 4.92 -26.19)"  >
<path style="stroke: none; stroke-width: 0; stroke-dasharray: none; stroke-linecap: butt; stroke-dashoffset: 0; stroke-linejoin: miter; stroke-miterlimit: 4; fill: rgb(0,0,0); fill-rule: nonzero; opacity: 1;" vector-effect="non-scaling-stroke"  transform=" translate(-797.97, -180.78)" d="M 776.99 211.39 L 776.99 150.17 L 818.94 150.17 L 818.94 160.67999999999998 L 789.85 160.67999999999998 L 789.85 174.99999999999997 L 817.03 174.99999999999997 L 817.03 185.58999999999997 L 789.85 185.58999999999997 L 789.85 200.87999999999997 L 818.94 200.87999999999997 L 818.94 211.38999999999996 L 776.99 211.38999999999996 Z" stroke-linecap="round" />
</g>
		<g transform="matrix(1 0 0 1 95.88 -26.19)"  >
<path style="stroke: none; stroke-width: 0; stroke-dasharray: none; stroke-linecap: butt; stroke-dashoffset: 0; stroke-linejoin: miter; stroke-miterlimit: 4; fill: rgb(0,0,0); fill-rule: nonzero; opacity: 1;" vector-effect="non-scaling-stroke"  transform=" translate(-888.92, -180.78)" d="M 870.51 211.39 L 870.51 150.17 L 907.33 150.17 L 907.33 154.76999999999998 L 875.8100000000001 154.76999999999998 L 875.8100000000001 178.13 L 905.6 178.13 L 905.6 182.73 L 875.8100000000001 182.73 L 875.8100000000001 211.39 L 870.5100000000001 211.39 Z" stroke-linecap="round" />
</g>
		<g transform="matrix(1 0 0 1 156.66 -25.84)"  >
<path style="stroke: none; stroke-width: 0; stroke-dasharray: none; stroke-linecap: butt; stroke-dashoffset: 0; stroke-linejoin: miter; stroke-miterlimit: 4; fill: rgb(0,0,0); fill-rule: nonzero; opacity: 1;" vector-effect="non-scaling-stroke"  transform=" translate(-949.7, -181.13)" d="M 949.7 212.08 C 941.88 212.08 935.96 209.98000000000002 931.9000000000001 205.78 C 927.8500000000001 201.59 925.82 195.49 925.82 187.51 L 925.82 150.17 L 931.12 150.17 L 931.12 187.07 C 931.12 200.5 937.3100000000001 207.22 949.7 207.22 C 962.09 207.22 968.2900000000001 200.51 968.2900000000001 187.07 L 968.2900000000001 150.17 L 973.58 150.17 L 973.58 187.51 C 973.58 195.5 971.5600000000001 201.59 967.5 205.78 C 963.45 209.98 957.51 212.08 949.7 212.08 Z" stroke-linecap="round" />
</g>
		<g transform="matrix(1 0 0 1 223.4 -26.19)"  >
<path style="stroke: none; stroke-width: 0; stroke-dasharray: none; stroke-linecap: butt; stroke-dashoffset: 0; stroke-linejoin: miter; stroke-miterlimit: 4; fill: rgb(0,0,0); fill-rule: nonzero; opacity: 1;" vector-effect="non-scaling-stroke"  transform=" translate(-1016.44, -180.78)" d="M 997.81 211.39 L 997.81 150.17 L 1003.1099999999999 150.17 L 1003.1099999999999 206.60999999999999 L 1035.07 206.60999999999999 L 1035.07 211.39 L 997.81 211.39 Z" stroke-linecap="round" />
</g>
		<g transform="matrix(1 0 0 1 285.01 -26.18)"  >
<path style="stroke: none; stroke-width: 0; stroke-dasharray: none; stroke-linecap: butt; stroke-dashoffset: 0; stroke-linejoin: miter; stroke-miterlimit: 4; fill: rgb(0,0,0); fill-rule: nonzero; opacity: 1;" vector-effect="non-scaling-stroke"  transform=" translate(-1078.05, -180.78)" d="M 1052.95 211.39 L 1052.95 150.17 L 1072.67 150.17 C 1082.39 150.17 1089.91 152.78 1095.21 157.98999999999998 C 1100.5 163.2 1103.15 170.77999999999997 1103.15 180.73999999999998 C 1103.15 190.7 1100.5 198.29999999999998 1095.21 203.54 C 1089.91 208.78 1082.4 211.4 1072.67 211.4 L 1052.95 211.4 Z M 1058.25 206.7 L 1072.23 206.7 C 1089.02 206.7 1097.42 198.04999999999998 1097.42 180.73999999999998 C 1097.42 163.42999999999998 1089.02 154.86999999999998 1072.23 154.86999999999998 L 1058.25 154.86999999999998 L 1058.25 206.7 Z" stroke-linecap="round" />
</g>
		<g transform="matrix(1 0 0 1 354.65 -26.19)"  >
<path style="stroke: none; stroke-width: 0; stroke-dasharray: none; stroke-linecap: butt; stroke-dashoffset: 0; stroke-linejoin: miter; stroke-miterlimit: 4; fill: rgb(0,0,0); fill-rule: nonzero; opacity: 1;" vector-effect="non-scaling-stroke"  transform=" translate(-1147.7, -180.78)" d="M 1118.69 211.39 L 1145.3500000000001 150.17 L 1150.13 150.17 L 1176.7 211.39 L 1171.15 211.39 L 1164.1100000000001 195.07 L 1131.2900000000002 195.07 L 1124.3400000000001 211.39 L 1118.7 211.39 Z M 1147.6100000000001 156.76999999999998 L 1133.2800000000002 190.45999999999998 L 1162.1100000000001 190.45999999999998 L 1147.7800000000002 156.76999999999998 L 1147.6100000000001 156.76999999999998 Z" stroke-linecap="round" />
</g>
		<g transform="matrix(1 0 0 1 -345.36 43.23)"  >
<path style="stroke: none; stroke-width: 0; stroke-dasharray: none; stroke-linecap: butt; stroke-dashoffset: 0; stroke-linejoin: miter; stroke-miterlimit: 4; fill: rgb(0,0,0); fill-rule: nonzero; opacity: 1;" vector-effect="non-scaling-stroke"  transform=" translate(-447.69, -250.19)" d="M 447.73 264.7 C 443.91 264.7 440.99 263.69 438.97 261.67 C 436.95000000000005 259.66 435.95000000000005 256.7 435.95000000000005 252.79000000000002 L 435.95000000000005 235.69000000000003 L 440.18000000000006 235.69000000000003 L 440.18000000000006 252.71000000000004 C 440.18000000000006 258.26000000000005 442.70000000000005 261.03000000000003 447.7300000000001 261.03000000000003 C 452.7600000000001 261.03000000000003 455.2800000000001 258.26000000000005 455.2800000000001 252.71000000000004 L 455.2800000000001 235.69000000000003 L 459.4200000000001 235.69000000000003 L 459.4200000000001 252.79000000000002 C 459.4200000000001 256.69 458.43000000000006 259.65000000000003 456.4600000000001 261.67 C 454.4800000000001 263.69 451.5700000000001 264.7 447.7300000000001 264.7 Z" stroke-linecap="round" />
</g>
		<g transform="matrix(1 0 0 1 -313.32 43.04)"  >
<path style="stroke: none; stroke-width: 0; stroke-dasharray: none; stroke-linecap: butt; stroke-dashoffset: 0; stroke-linejoin: miter; stroke-miterlimit: 4; fill: rgb(0,0,0); fill-rule: nonzero; opacity: 1;" vector-effect="non-scaling-stroke"  transform=" translate(-479.73, -250.01)" d="M 467.96 264.33 L 467.96 235.69 L 471.18 235.69 L 487.59000000000003 257.34 L 487.59000000000003 235.68999999999997 L 491.49 235.68999999999997 L 491.49 264.33 L 488.36 264.33 L 471.87 242.58999999999997 L 471.87 264.33 L 467.97 264.33 Z" stroke-linecap="round" />
</g>
		<g transform="matrix(1 0 0 1 -290.76 43.04)"  >
<path style="stroke: none; stroke-width: 0; stroke-dasharray: none; stroke-linecap: butt; stroke-dashoffset: 0; stroke-linejoin: miter; stroke-miterlimit: 4; fill: rgb(0,0,0); fill-rule: nonzero; opacity: 1;" vector-effect="non-scaling-stroke"  transform=" translate(-502.29, -250.01)" d="M 500.17 264.33 L 500.17 235.69 L 504.40000000000003 235.69 L 504.40000000000003 264.33 L 500.17 264.33 Z" stroke-linecap="round" />
</g>
		<g transform="matrix(1 0 0 1 -269.12 43.04)"  >
<path style="stroke: none; stroke-width: 0; stroke-dasharray: none; stroke-linecap: butt; stroke-dashoffset: 0; stroke-linejoin: miter; stroke-miterlimit: 4; fill: rgb(0,0,0); fill-rule: nonzero; opacity: 1;" vector-effect="non-scaling-stroke"  transform=" translate(-523.92, -250.01)" d="M 522.11 264.33 L 509.48 235.69 L 513.99 235.69 L 524.02 259.01 L 534.05 235.69 L 538.3599999999999 235.69 L 525.7199999999999 264.33 L 522.0999999999999 264.33 Z" stroke-linecap="round" />
</g>
		<g transform="matrix(1 0 0 1 -240.26 43.04)"  >
<path style="stroke: none; stroke-width: 0; stroke-dasharray: none; stroke-linecap: butt; stroke-dashoffset: 0; stroke-linejoin: miter; stroke-miterlimit: 4; fill: rgb(0,0,0); fill-rule: nonzero; opacity: 1;" vector-effect="non-scaling-stroke"  transform=" translate(-552.78, -250.01)" d="M 543.52 264.33 L 543.52 235.69 L 562.05 235.69 L 562.05 239.1 L 547.5799999999999 239.1 L 547.5799999999999 248.07999999999998 L 561.1899999999999 248.07999999999998 L 561.1899999999999 251.48999999999998 L 547.5799999999999 251.48999999999998 L 547.5799999999999 260.91999999999996 L 562.05 260.91999999999996 L 562.05 264.33 L 543.52 264.33 Z" stroke-linecap="round" />
</g>
		<g transform="matrix(1 0 0 1 -211.94 43.04)"  >
<path style="stroke: none; stroke-width: 0; stroke-dasharray: none; stroke-linecap: butt; stroke-dashoffset: 0; stroke-linejoin: miter; stroke-miterlimit: 4; fill: rgb(0,0,0); fill-rule: nonzero; opacity: 1;" vector-effect="non-scaling-stroke"  transform=" translate(-581.11, -250.01)" d="M 569.48 264.33 L 569.48 235.69 L 581.34 235.69 C 584.4300000000001 235.69 586.8100000000001 236.43 588.49 237.9 C 590.16 239.38 591.01 241.45000000000002 591.01 244.1 C 591.01 246.23999999999998 590.4399999999999 247.98999999999998 589.31 249.35999999999999 C 588.17 250.72 586.56 251.64 584.4799999999999 252.1 C 585.7799999999999 252.53 586.8799999999999 253.57999999999998 587.7699999999999 255.22 L 592.7299999999999 264.32 L 588.0899999999999 264.32 L 583.1399999999999 255.18 C 582.5699999999998 254.12 581.9199999999998 253.41 581.1699999999998 253.05 C 580.4299999999998 252.68 579.4699999999998 252.5 578.3099999999998 252.5 L 573.7199999999998 252.5 L 573.7199999999998 264.32 L 569.4899999999998 264.32 Z M 573.71 249.33999999999997 L 580.6600000000001 249.33999999999997 C 584.83 249.33999999999997 586.9200000000001 247.61999999999998 586.9200000000001 244.17999999999998 C 586.9200000000001 240.73999999999998 584.83 239.05999999999997 580.6600000000001 239.05999999999997 L 573.71 239.05999999999997 L 573.71 249.33999999999997 Z" stroke-linecap="round" />
</g>
		<g transform="matrix(1 0 0 1 -184.54 43.04)"  >
<path style="stroke: none; stroke-width: 0; stroke-dasharray: none; stroke-linecap: butt; stroke-dashoffset: 0; stroke-linejoin: miter; stroke-miterlimit: 4; fill: rgb(0,0,0); fill-rule: nonzero; opacity: 1;" vector-effect="non-scaling-stroke"  transform=" translate(-608.5, -250)" d="M 608.51 264.7 C 606.26 264.7 604.21 264.40999999999997 602.34 263.82 C 600.47 263.24 598.88 262.42 597.58 261.36 L 598.9200000000001 258.03000000000003 C 600.2700000000001 259.06 601.72 259.83000000000004 603.2700000000001 260.35 C 604.8100000000001 260.86 606.5600000000001 261.12 608.5100000000001 261.12 C 610.8100000000001 261.12 612.5200000000001 260.7 613.6100000000001 259.88 C 614.7100000000002 259.05 615.2600000000001 257.96999999999997 615.2600000000001 256.64 C 615.2600000000001 255.55999999999997 614.8600000000001 254.7 614.0800000000002 254.05999999999997 C 613.3000000000002 253.42 611.9800000000001 252.92 610.1400000000001 252.53999999999996 L 605.7900000000001 251.63999999999996 C 603.22 251.09999999999997 601.3000000000001 250.20999999999995 600.0400000000001 248.95999999999995 C 598.7800000000001 247.70999999999995 598.1500000000001 246.02999999999994 598.1500000000001 243.91999999999996 C 598.1500000000001 242.21999999999997 598.6100000000001 240.70999999999995 599.5100000000001 239.40999999999997 C 600.4100000000001 238.10999999999999 601.69 237.09999999999997 603.3100000000001 236.38999999999996 C 604.9300000000001 235.66999999999996 606.8000000000001 235.30999999999995 608.9100000000001 235.30999999999995 C 610.8600000000001 235.30999999999995 612.6700000000001 235.60999999999996 614.33 236.18999999999994 C 616 236.76999999999995 617.4100000000001 237.61999999999995 618.58 238.72999999999993 L 617.2 241.93999999999994 C 614.9000000000001 239.90999999999994 612.12 238.88999999999993 608.87 238.88999999999993 C 606.86 238.88999999999993 605.27 239.33999999999992 604.1 240.22999999999993 C 602.9200000000001 241.12999999999994 602.33 242.30999999999995 602.33 243.80999999999995 C 602.33 244.94999999999993 602.69 245.84999999999994 603.4300000000001 246.52999999999994 C 604.1600000000001 247.20999999999995 605.3800000000001 247.71999999999994 607.08 248.07999999999996 L 611.38 248.96999999999994 C 614.09 249.53999999999994 616.11 250.40999999999994 617.4399999999999 251.58999999999995 C 618.77 252.75999999999993 619.43 254.35999999999996 619.43 256.35999999999996 C 619.43 258.03999999999996 618.9799999999999 259.49999999999994 618.0899999999999 260.74999999999994 C 617.1999999999999 261.99999999999994 615.93 262.9599999999999 614.31 263.6499999999999 C 612.6899999999999 264.3399999999999 610.75 264.68999999999994 608.5 264.68999999999994 Z" stroke-linecap="round" />
</g>
		<g transform="matrix(1 0 0 1 -164.66 43.04)"  >
<path style="stroke: none; stroke-width: 0; stroke-dasharray: none; stroke-linecap: butt; stroke-dashoffset: 0; stroke-linejoin: miter; stroke-miterlimit: 4; fill: rgb(0,0,0); fill-rule: nonzero; opacity: 1;" vector-effect="non-scaling-stroke"  transform=" translate(-628.38, -250.01)" d="M 626.27 264.33 L 626.27 235.69 L 630.5 235.69 L 630.5 264.33 L 626.27 264.33 Z" stroke-linecap="round" />
</g>
		<g transform="matrix(1 0 0 1 -144.81 43.04)"  >
<path style="stroke: none; stroke-width: 0; stroke-dasharray: none; stroke-linecap: butt; stroke-dashoffset: 0; stroke-linejoin: miter; stroke-miterlimit: 4; fill: rgb(0,0,0); fill-rule: nonzero; opacity: 1;" vector-effect="non-scaling-stroke"  transform=" translate(-648.24, -250.01)" d="M 646.14 264.33 L 646.14 239.21999999999997 L 635.99 239.21999999999997 L 635.99 235.68999999999997 L 660.48 235.68999999999997 L 660.48 239.21999999999997 L 650.33 239.21999999999997 L 650.33 264.33 L 646.1500000000001 264.33 Z" stroke-linecap="round" />
</g>
		<g transform="matrix(1 0 0 1 -117.64 43.04)"  >
<path style="stroke: none; stroke-width: 0; stroke-dasharray: none; stroke-linecap: butt; stroke-dashoffset: 0; stroke-linejoin: miter; stroke-miterlimit: 4; fill: rgb(0,0,0); fill-rule: nonzero; opacity: 1;" vector-effect="non-scaling-stroke"  transform=" translate(-675.4, -250.01)" d="M 673.31 264.33 L 673.31 250.96999999999997 L 662.3399999999999 235.68999999999997 L 667.2199999999999 235.68999999999997 L 675.4999999999999 247.26999999999998 L 683.7899999999998 235.68999999999997 L 688.4599999999998 235.68999999999997 L 677.4899999999998 250.99999999999997 L 677.4899999999998 264.33 L 673.3099999999998 264.33 Z" stroke-linecap="round" />
</g>
		<g transform="matrix(1 0 0 1 -74.8 43.04)"  >
<path style="stroke: none; stroke-width: 0; stroke-dasharray: none; stroke-linecap: butt; stroke-dashoffset: 0; stroke-linejoin: miter; stroke-miterlimit: 4; fill: rgb(0,0,0); fill-rule: nonzero; opacity: 1;" vector-effect="non-scaling-stroke"  transform=" translate(-718.24, -250.01)" d="M 718.24 264.7 C 715.51 264.7 713.14 264.09 711.13 262.89 C 709.13 261.68 707.58 259.97999999999996 706.48 257.77 C 705.38 255.55999999999997 704.83 252.95999999999998 704.83 249.98999999999998 C 704.83 247.01999999999998 705.38 244.37999999999997 706.48 242.18999999999997 C 707.58 239.99999999999997 709.13 238.29999999999998 711.13 237.10999999999996 C 713.14 235.91999999999996 715.5 235.31999999999996 718.24 235.31999999999996 C 720.98 235.31999999999996 723.3100000000001 235.91999999999996 725.33 237.10999999999996 C 727.34 238.29999999999995 728.9100000000001 239.99999999999994 730 242.18999999999997 C 731.0899999999999 244.38 731.65 246.96999999999997 731.65 249.94999999999996 C 731.65 252.92999999999995 731.1 255.55999999999997 730 257.77 C 728.9 259.96999999999997 727.34 261.68 725.33 262.89 C 723.3100000000001 264.09 720.95 264.7 718.24 264.7 Z M 718.24 261.03999999999996 C 721.09 261.03999999999996 723.3 260.06999999999994 724.88 258.14 C 726.47 256.2 727.26 253.48999999999998 727.26 250 C 727.26 246.51000000000002 726.47 243.8 724.9 241.87 C 723.3299999999999 239.94 721.11 238.99 718.24 238.99 C 715.37 238.99 713.19 239.95000000000002 711.6 241.87 C 710.01 243.79 709.22 246.5 709.22 250 C 709.22 253.5 710.01 256.2 711.6 258.14 C 713.1800000000001 260.08 715.39 261.03999999999996 718.24 261.03999999999996 Z" stroke-linecap="round" />
</g>
		<g transform="matrix(1 0 0 1 -44.63 43.04)"  >
<path style="stroke: none; stroke-width: 0; stroke-dasharray: none; stroke-linecap: butt; stroke-dashoffset: 0; stroke-linejoin: miter; stroke-miterlimit: 4; fill: rgb(0,0,0); fill-rule: nonzero; opacity: 1;" vector-effect="non-scaling-stroke"  transform=" translate(-748.42, -250.01)" d="M 739.32 264.33 L 739.32 235.69 L 757.5200000000001 235.69 L 757.5200000000001 239.1 L 743.5400000000001 239.1 L 743.5400000000001 248.24 L 756.6600000000001 248.24 L 756.6600000000001 251.65 L 743.5400000000001 251.65 L 743.5400000000001 264.33 L 739.3100000000001 264.33 Z" stroke-linecap="round" />
</g>
		<g transform="matrix(1 0 0 1 -4.82 43.04)"  >
<path style="stroke: none; stroke-width: 0; stroke-dasharray: none; stroke-linecap: butt; stroke-dashoffset: 0; stroke-linejoin: miter; stroke-miterlimit: 4; fill: rgb(0,0,0); fill-rule: nonzero; opacity: 1;" vector-effect="non-scaling-stroke"  transform=" translate(-788.22, -250.01)" d="M 773.69 264.33 L 786.45 235.69 L 789.95 235.69 L 802.75 264.33 L 798.44 264.33 L 795.44 257.34 L 780.94 257.34 L 777.97 264.33 L 773.7 264.33 Z M 788.1600000000001 240.35999999999999 L 782.4300000000001 253.92999999999998 L 794.0100000000001 253.92999999999998 L 788.2400000000001 240.35999999999999 L 788.1600000000001 240.35999999999999 Z" stroke-linecap="round" />
</g>
		<g transform="matrix(1 0 0 1 26.23 43.05)"  >
<path style="stroke: none; stroke-width: 0; stroke-dasharray: none; stroke-linecap: butt; stroke-dashoffset: 0; stroke-linejoin: miter; stroke-miterlimit: 4; fill: rgb(0,0,0); fill-rule: nonzero; opacity: 1;" vector-effect="non-scaling-stroke"  transform=" translate(-819.27, -250.02)" d="M 808.51 264.33 L 808.51 235.69 L 820.37 235.69 C 823.46 235.69 825.84 236.46 827.52 237.99 C 829.1899999999999 239.52 830.04 241.66 830.04 244.43 C 830.04 247.20000000000002 829.1999999999999 249.38 827.52 250.91 C 825.84 252.44 823.46 253.21 820.37 253.21 L 812.73 253.21 L 812.73 264.34000000000003 L 808.5 264.34000000000003 Z M 812.74 249.82999999999998 L 819.77 249.82999999999998 C 823.88 249.82999999999998 825.9499999999999 248.02999999999997 825.9499999999999 244.42 C 825.9499999999999 240.81 823.89 239.05999999999997 819.77 239.05999999999997 L 812.74 239.05999999999997 L 812.74 249.82999999999998 Z" stroke-linecap="round" />
</g>
		<g transform="matrix(1 0 0 1 54.34 43.05)"  >
<path style="stroke: none; stroke-width: 0; stroke-dasharray: none; stroke-linecap: butt; stroke-dashoffset: 0; stroke-linejoin: miter; stroke-miterlimit: 4; fill: rgb(0,0,0); fill-rule: nonzero; opacity: 1;" vector-effect="non-scaling-stroke"  transform=" translate(-847.38, -250.02)" d="M 836.62 264.33 L 836.62 235.69 L 848.48 235.69 C 851.57 235.69 853.95 236.46 855.63 237.99 C 857.3 239.52 858.15 241.66 858.15 244.43 C 858.15 247.20000000000002 857.31 249.38 855.63 250.91 C 853.95 252.44 851.57 253.21 848.48 253.21 L 840.84 253.21 L 840.84 264.34000000000003 L 836.61 264.34000000000003 Z M 840.85 249.82999999999998 L 847.88 249.82999999999998 C 851.99 249.82999999999998 854.06 248.02999999999997 854.06 244.42 C 854.06 240.81 852 239.05999999999997 847.88 239.05999999999997 L 840.85 239.05999999999997 L 840.85 249.82999999999998 Z" stroke-linecap="round" />
</g>
		<g transform="matrix(1 0 0 1 80.89 43.04)"  >
<path style="stroke: none; stroke-width: 0; stroke-dasharray: none; stroke-linecap: butt; stroke-dashoffset: 0; stroke-linejoin: miter; stroke-miterlimit: 4; fill: rgb(0,0,0); fill-rule: nonzero; opacity: 1;" vector-effect="non-scaling-stroke"  transform=" translate(-873.93, -250.01)" d="M 864.73 264.33 L 864.73 235.69 L 868.96 235.69 L 868.96 260.71 L 883.14 260.71 L 883.14 264.33 L 864.73 264.33 Z" stroke-linecap="round" />
</g>
		<g transform="matrix(1 0 0 1 98.25 43.04)"  >
<path style="stroke: none; stroke-width: 0; stroke-dasharray: none; stroke-linecap: butt; stroke-dashoffset: 0; stroke-linejoin: miter; stroke-miterlimit: 4; fill: rgb(0,0,0); fill-rule: nonzero; opacity: 1;" vector-effect="non-scaling-stroke"  transform=" translate(-891.29, -250.01)" d="M 889.18 264.33 L 889.18 235.69 L 893.41 235.69 L 893.41 264.33 L 889.18 264.33 Z" stroke-linecap="round" />
</g>
		<g transform="matrix(1 0 0 1 118.28 43.04)"  >
<path style="stroke: none; stroke-width: 0; stroke-dasharray: none; stroke-linecap: butt; stroke-dashoffset: 0; stroke-linejoin: miter; stroke-miterlimit: 4; fill: rgb(0,0,0); fill-rule: nonzero; opacity: 1;" vector-effect="non-scaling-stroke"  transform=" translate(-911.32, -250.01)" d="M 902.06 264.33 L 902.06 235.69 L 920.5899999999999 235.69 L 920.5899999999999 239.1 L 906.1199999999999 239.1 L 906.1199999999999 248.07999999999998 L 919.7299999999999 248.07999999999998 L 919.7299999999999 251.48999999999998 L 906.1199999999999 251.48999999999998 L 906.1199999999999 260.91999999999996 L 920.5899999999999 260.91999999999996 L 920.5899999999999 264.33 L 902.06 264.33 Z" stroke-linecap="round" />
</g>
		<g transform="matrix(1 0 0 1 147.41 43.05)"  >
<path style="stroke: none; stroke-width: 0; stroke-dasharray: none; stroke-linecap: butt; stroke-dashoffset: 0; stroke-linejoin: miter; stroke-miterlimit: 4; fill: rgb(0,0,0); fill-rule: nonzero; opacity: 1;" vector-effect="non-scaling-stroke"  transform=" translate(-940.45, -250.02)" d="M 928.02 264.33 L 928.02 235.69 L 938.14 235.69 C 942.85 235.69 946.49 236.93 949.04 239.39 C 951.61 241.85999999999999 952.88 245.39 952.88 250 C 952.88 254.61 951.6 258.14 949.04 260.62 C 946.48 263.1 942.8499999999999 264.34000000000003 938.14 264.34000000000003 L 928.02 264.34000000000003 Z M 932.25 260.8 L 937.9 260.8 C 944.97 260.8 948.51 257.2 948.51 250 C 948.51 242.8 944.98 239.23 937.9 239.23 L 932.25 239.23 L 932.25 260.8 Z" stroke-linecap="round" />
</g>
		<g transform="matrix(1 0 0 1 189.77 43.04)"  >
<path style="stroke: none; stroke-width: 0; stroke-dasharray: none; stroke-linecap: butt; stroke-dashoffset: 0; stroke-linejoin: miter; stroke-miterlimit: 4; fill: rgb(0,0,0); fill-rule: nonzero; opacity: 1;" vector-effect="non-scaling-stroke"  transform=" translate(-982.82, -250)" d="M 982.82 264.7 C 980.57 264.7 978.5200000000001 264.40999999999997 976.6500000000001 263.82 C 974.7800000000001 263.24 973.19 262.42 971.8900000000001 261.36 L 973.2300000000001 258.03000000000003 C 974.5800000000002 259.06 976.0300000000001 259.83000000000004 977.5800000000002 260.35 C 979.1200000000001 260.86 980.8700000000001 261.12 982.8200000000002 261.12 C 985.1200000000001 261.12 986.8300000000002 260.7 987.9200000000002 259.88 C 989.0200000000002 259.05 989.5700000000002 257.96999999999997 989.5700000000002 256.64 C 989.5700000000002 255.55999999999997 989.1700000000002 254.7 988.3900000000002 254.05999999999997 C 987.6100000000002 253.42 986.2900000000002 252.92 984.4500000000002 252.53999999999996 L 980.1000000000001 251.63999999999996 C 977.5300000000001 251.09999999999997 975.6100000000001 250.20999999999995 974.3500000000001 248.95999999999995 C 973.0900000000001 247.70999999999995 972.4600000000002 246.02999999999994 972.4600000000002 243.91999999999996 C 972.4600000000002 242.21999999999997 972.9200000000002 240.70999999999995 973.8200000000002 239.40999999999997 C 974.7200000000001 238.10999999999999 976.0000000000001 237.09999999999997 977.6200000000001 236.38999999999996 C 979.2400000000001 235.66999999999996 981.1100000000001 235.30999999999995 983.2200000000001 235.30999999999995 C 985.1700000000002 235.30999999999995 986.9800000000001 235.60999999999996 988.6400000000001 236.18999999999994 C 990.3100000000001 236.76999999999995 991.7200000000001 237.61999999999995 992.8900000000001 238.72999999999993 L 991.5100000000001 241.93999999999994 C 989.2100000000002 239.90999999999994 986.4300000000001 238.88999999999993 983.1800000000001 238.88999999999993 C 981.1700000000001 238.88999999999993 979.58 239.33999999999992 978.4100000000001 240.22999999999993 C 977.2300000000001 241.12999999999994 976.6400000000001 242.30999999999995 976.6400000000001 243.80999999999995 C 976.6400000000001 244.94999999999993 977.0000000000001 245.84999999999994 977.7400000000001 246.52999999999994 C 978.4700000000001 247.20999999999995 979.6900000000002 247.71999999999994 981.3900000000001 248.07999999999996 L 985.69 248.96999999999994 C 988.4000000000001 249.53999999999994 990.4200000000001 250.40999999999994 991.75 251.58999999999995 C 993.08 252.75999999999993 993.74 254.35999999999996 993.74 256.35999999999996 C 993.74 258.03999999999996 993.29 259.49999999999994 992.4 260.74999999999994 C 991.51 261.99999999999994 990.24 262.9599999999999 988.62 263.6499999999999 C 987 264.3399999999999 985.0600000000001 264.68999999999994 982.8100000000001 264.68999999999994 Z" stroke-linecap="round" />
</g>
		<g transform="matrix(1 0 0 1 218.32 43.04)"  >
<path style="stroke: none; stroke-width: 0; stroke-dasharray: none; stroke-linecap: butt; stroke-dashoffset: 0; stroke-linejoin: miter; stroke-miterlimit: 4; fill: rgb(0,0,0); fill-rule: nonzero; opacity: 1;" vector-effect="non-scaling-stroke"  transform=" translate(-1011.36, -250.01)" d="M 1013.41 264.7 C 1010.51 264.7 1008.03 264.09999999999997 1005.98 262.90999999999997 C 1003.9200000000001 261.71999999999997 1002.34 260.02 1001.25 257.80999999999995 C 1000.15 255.60999999999996 999.6 252.99999999999994 999.6 249.98999999999995 C 999.6 246.97999999999996 1000.15 244.37999999999994 1001.25 242.18999999999994 C 1002.35 239.99999999999994 1003.93 238.29999999999995 1005.98 237.10999999999993 C 1008.04 235.91999999999993 1010.52 235.31999999999994 1013.41 235.31999999999994 C 1015.36 235.31999999999994 1017.18 235.62999999999994 1018.87 236.23999999999992 C 1020.57 236.84999999999994 1021.98 237.7199999999999 1023.12 238.85999999999993 L 1021.66 242.22999999999993 C 1020.42 241.11999999999992 1019.14 240.30999999999995 1017.8199999999999 239.80999999999995 C 1016.4999999999999 239.30999999999995 1015.0799999999999 239.04999999999995 1013.53 239.04999999999995 C 1010.4399999999999 239.04999999999995 1008.0899999999999 239.99999999999994 1006.4599999999999 241.89999999999995 C 1004.8299999999999 243.79999999999995 1004.0199999999999 246.48999999999995 1004.0199999999999 249.97999999999996 C 1004.0199999999999 253.46999999999997 1004.8299999999998 256.16999999999996 1006.4599999999999 258.09 C 1008.0899999999999 260 1010.4399999999999 260.95 1013.53 260.95 C 1015.0799999999999 260.95 1016.51 260.7 1017.8199999999999 260.2 C 1019.1299999999999 259.7 1020.41 258.89 1021.66 257.78 L 1023.12 261.15999999999997 C 1021.98 262.27 1020.57 263.13 1018.87 263.76 C 1017.18 264.38 1015.36 264.69 1013.41 264.69 Z" stroke-linecap="round" />
</g>
		<g transform="matrix(1 0 0 1 239.13 43.04)"  >
<path style="stroke: none; stroke-width: 0; stroke-dasharray: none; stroke-linecap: butt; stroke-dashoffset: 0; stroke-linejoin: miter; stroke-miterlimit: 4; fill: rgb(0,0,0); fill-rule: nonzero; opacity: 1;" vector-effect="non-scaling-stroke"  transform=" translate(-1032.17, -250.01)" d="M 1030.06 264.33 L 1030.06 235.69 L 1034.29 235.69 L 1034.29 264.33 L 1030.06 264.33 Z" stroke-linecap="round" />
</g>
		<g transform="matrix(1 0 0 1 259.16 43.04)"  >
<path style="stroke: none; stroke-width: 0; stroke-dasharray: none; stroke-linecap: butt; stroke-dashoffset: 0; stroke-linejoin: miter; stroke-miterlimit: 4; fill: rgb(0,0,0); fill-rule: nonzero; opacity: 1;" vector-effect="non-scaling-stroke"  transform=" translate(-1052.2, -250.01)" d="M 1042.94 264.33 L 1042.94 235.69 L 1061.47 235.69 L 1061.47 239.1 L 1047 239.1 L 1047 248.07999999999998 L 1060.61 248.07999999999998 L 1060.61 251.48999999999998 L 1047 251.48999999999998 L 1047 260.91999999999996 L 1061.47 260.91999999999996 L 1061.47 264.33 L 1042.94 264.33 Z" stroke-linecap="round" />
</g>
		<g transform="matrix(1 0 0 1 287.62 43.04)"  >
<path style="stroke: none; stroke-width: 0; stroke-dasharray: none; stroke-linecap: butt; stroke-dashoffset: 0; stroke-linejoin: miter; stroke-miterlimit: 4; fill: rgb(0,0,0); fill-rule: nonzero; opacity: 1;" vector-effect="non-scaling-stroke"  transform=" translate(-1080.67, -250.01)" d="M 1068.9 264.33 L 1068.9 235.69 L 1072.1200000000001 235.69 L 1088.5300000000002 257.34 L 1088.5300000000002 235.68999999999997 L 1092.4300000000003 235.68999999999997 L 1092.4300000000003 264.33 L 1089.3000000000002 264.33 L 1072.8100000000002 242.58999999999997 L 1072.8100000000002 264.33 L 1068.91 264.33 Z" stroke-linecap="round" />
</g>
		<g transform="matrix(1 0 0 1 318.87 43.04)"  >
<path style="stroke: none; stroke-width: 0; stroke-dasharray: none; stroke-linecap: butt; stroke-dashoffset: 0; stroke-linejoin: miter; stroke-miterlimit: 4; fill: rgb(0,0,0); fill-rule: nonzero; opacity: 1;" vector-effect="non-scaling-stroke"  transform=" translate(-1111.91, -250.01)" d="M 1113.96 264.7 C 1111.06 264.7 1108.58 264.09999999999997 1106.53 262.90999999999997 C 1104.47 261.71999999999997 1102.8899999999999 260.02 1101.8 257.80999999999995 C 1100.7 255.60999999999996 1100.1499999999999 252.99999999999994 1100.1499999999999 249.98999999999995 C 1100.1499999999999 246.97999999999996 1100.6999999999998 244.37999999999994 1101.8 242.18999999999994 C 1102.9 239.99999999999994 1104.48 238.29999999999995 1106.53 237.10999999999993 C 1108.59 235.91999999999993 1111.07 235.31999999999994 1113.96 235.31999999999994 C 1115.91 235.31999999999994 1117.73 235.62999999999994 1119.42 236.23999999999992 C 1121.1200000000001 236.84999999999994 1122.53 237.7199999999999 1123.67 238.85999999999993 L 1122.21 242.22999999999993 C 1120.97 241.11999999999992 1119.69 240.30999999999995 1118.3700000000001 239.80999999999995 C 1117.0500000000002 239.30999999999995 1115.63 239.04999999999995 1114.0800000000002 239.04999999999995 C 1110.9900000000002 239.04999999999995 1108.64 239.99999999999994 1107.0100000000002 241.89999999999995 C 1105.3800000000003 243.79999999999995 1104.5700000000002 246.48999999999995 1104.5700000000002 249.97999999999996 C 1104.5700000000002 253.46999999999997 1105.38 256.16999999999996 1107.0100000000002 258.09 C 1108.6400000000003 260 1110.9900000000002 260.95 1114.0800000000002 260.95 C 1115.63 260.95 1117.0600000000002 260.7 1118.3700000000001 260.2 C 1119.68 259.7 1120.96 258.89 1122.21 257.78 L 1123.67 261.15999999999997 C 1122.53 262.27 1121.1200000000001 263.13 1119.42 263.76 C 1117.73 264.38 1115.91 264.69 1113.96 264.69 Z" stroke-linecap="round" />
</g>
		<g transform="matrix(1 0 0 1 346.82 43.04)"  >
<path style="stroke: none; stroke-width: 0; stroke-dasharray: none; stroke-linecap: butt; stroke-dashoffset: 0; stroke-linejoin: miter; stroke-miterlimit: 4; fill: rgb(0,0,0); fill-rule: nonzero; opacity: 1;" vector-effect="non-scaling-stroke"  transform=" translate(-1139.86, -250.01)" d="M 1130.6 264.33 L 1130.6 235.69 L 1149.1299999999999 235.69 L 1149.1299999999999 239.1 L 1134.6599999999999 239.1 L 1134.6599999999999 248.07999999999998 L 1148.2699999999998 248.07999999999998 L 1148.2699999999998 251.48999999999998 L 1134.6599999999999 251.48999999999998 L 1134.6599999999999 260.91999999999996 L 1149.1299999999999 260.91999999999996 L 1149.1299999999999 264.33 L 1130.6 264.33 Z" stroke-linecap="round" />
</g>
		<g transform="matrix(1 0 0 1 372.65 43.04)"  >
<path style="stroke: none; stroke-width: 0; stroke-dasharray: none; stroke-linecap: butt; stroke-dashoffset: 0; stroke-linejoin: miter; stroke-miterlimit: 4; fill: rgb(0,0,0); fill-rule: nonzero; opacity: 1;" vector-effect="non-scaling-stroke"  transform=" translate(-1165.69, -250)" d="M 1165.7 264.7 C 1163.45 264.7 1161.4 264.40999999999997 1159.53 263.82 C 1157.66 263.24 1156.07 262.42 1154.77 261.36 L 1156.11 258.03000000000003 C 1157.4599999999998 259.06 1158.9099999999999 259.83000000000004 1160.4599999999998 260.35 C 1161.9999999999998 260.86 1163.7499999999998 261.12 1165.6999999999998 261.12 C 1167.9999999999998 261.12 1169.7099999999998 260.7 1170.7999999999997 259.88 C 1171.8999999999996 259.05 1172.4499999999998 257.96999999999997 1172.4499999999998 256.64 C 1172.4499999999998 255.55999999999997 1172.0499999999997 254.7 1171.2699999999998 254.05999999999997 C 1170.4899999999998 253.42 1169.1699999999998 252.92 1167.3299999999997 252.53999999999996 L 1162.9799999999998 251.63999999999996 C 1160.4099999999999 251.09999999999997 1158.4899999999998 250.20999999999995 1157.2299999999998 248.95999999999995 C 1155.9699999999998 247.70999999999995 1155.3399999999997 246.02999999999994 1155.3399999999997 243.91999999999996 C 1155.3399999999997 242.21999999999997 1155.7999999999997 240.70999999999995 1156.6999999999996 239.40999999999997 C 1157.5999999999995 238.10999999999999 1158.8799999999997 237.09999999999997 1160.4999999999995 236.38999999999996 C 1162.1199999999994 235.66999999999996 1163.9899999999996 235.30999999999995 1166.0999999999995 235.30999999999995 C 1168.0499999999995 235.30999999999995 1169.8599999999994 235.60999999999996 1171.5199999999995 236.18999999999994 C 1173.1899999999996 236.76999999999995 1174.5999999999995 237.61999999999995 1175.7699999999995 238.72999999999993 L 1174.3899999999994 241.93999999999994 C 1172.0899999999995 239.90999999999994 1169.3099999999995 238.88999999999993 1166.0599999999995 238.88999999999993 C 1164.0499999999995 238.88999999999993 1162.4599999999996 239.33999999999992 1161.2899999999995 240.22999999999993 C 1160.1099999999994 241.12999999999994 1159.5199999999995 242.30999999999995 1159.5199999999995 243.80999999999995 C 1159.5199999999995 244.94999999999993 1159.8799999999994 245.84999999999994 1160.6199999999994 246.52999999999994 C 1161.3499999999995 247.20999999999995 1162.5699999999995 247.71999999999994 1164.2699999999995 248.07999999999996 L 1168.5699999999995 248.96999999999994 C 1171.2799999999995 249.53999999999994 1173.2999999999995 250.40999999999994 1174.6299999999994 251.58999999999995 C 1175.9599999999994 252.75999999999993 1176.6199999999994 254.35999999999996 1176.6199999999994 256.35999999999996 C 1176.6199999999994 258.03999999999996 1176.1699999999994 259.49999999999994 1175.2799999999995 260.74999999999994 C 1174.3899999999996 261.99999999999994 1173.1199999999994 262.9599999999999 1171.4999999999995 263.6499999999999 C 1169.8799999999997 264.3399999999999 1167.9399999999996 264.68999999999994 1165.6899999999996 264.68999999999994 Z" stroke-linecap="round" />
</g>
</g>
</g>
</svg>